<svg xmlns="http://www.w3.org/2000/svg" xmlns:xlink="http://www.w3.org/1999/xlink" width="64" height="64" class="icon" p-id="3625" t="1581556232758" version="1.1" viewBox="0 0 1024 1024"><defs><style type="text/css"/></defs><path fill="#E0635A" d="M873.900097 150.099905a511.331877 511.331877 0 0 0-723.800191 0 511.331877 511.331877 0 0 0 0 723.80019 511.331877 511.331877 0 0 0 723.800191 0 511.331877 511.331877 0 0 0 0-723.80019z" p-id="3626"/><path fill="#FFF" d="M602.491025 512l150.839703 150.839704a63.99648 63.99648 0 1 1-90.491023 90.491023L512.000002 602.491023l-150.839704 150.839704a63.99648 63.99648 0 1 1-90.491023-90.491023L421.508979 512 270.669275 361.160296a63.99648 63.99648 0 1 1 90.491023-90.491023L512.000002 421.508977l150.839703-150.839704a63.99648 63.99648 0 1 1 90.491023 90.491023L602.491025 512z" opacity=".9" p-id="3627"/></svg>